# xmcd CD database file
#
# Track frame offsets:
#	150
#	22575
#	39895
#	56247
#	73420
#
# Disc length: 1054 seconds
#
# Revision: 0
# Processed by: cddbd v1.5.2PL0 Copyright (c) Steve Scherf et al.
# Submitted via: CDex 1.70beta2
#
DISCID=3b041c05
DTITLE=Pia Fridhill Trio - Until now.....
DYEAR=2007
DGENRE=Jazz
TTITLE0=Lover
TTITLE1=Never said it was
TTITLE2=Cradle of love
TTITLE3=Always my fault
TTITLE4=Gossen
EXTD=YEAR: 2007
EXTT0=
EXTT1=
EXTT2=
EXTT3=
EXTT4=
PLAYORDER=
